<svg xmlns="http://www.w3.org/2000/svg" width="500" height="500"><path d="M0 0 C2.79929229 -0.00245962 5.59858218 -0.00637421 8.39787292 -0.01017761 C15.16413245 -0.01841271 21.93038325 -0.02122902 28.69664738 -0.02178999 C34.19575353 -0.02226778 39.69485684 -0.02433552 45.1939621 -0.02749062 C60.81744467 -0.03627119 76.44092042 -0.04091311 92.06440547 -0.04016014 C92.90311749 -0.04012019 93.7418295 -0.04008023 94.60595703 -0.04003906 C95.44570154 -0.03999818 96.28544605 -0.0399573 97.15063736 -0.03991518 C110.79878289 -0.03950759 124.44690098 -0.04911226 138.09503856 -0.06317743 C152.14059996 -0.07753732 166.18614795 -0.08444809 180.23171687 -0.08358365 C188.10508435 -0.08325195 195.97842291 -0.08598832 203.85178375 -0.0967617 C210.54340996 -0.10586072 217.23499408 -0.10804622 223.92662379 -0.10125228 C227.33820143 -0.09798644 230.74969827 -0.09793318 234.16126823 -0.10660553 C237.86037199 -0.1142997 241.55926279 -0.10969782 245.25836182 -0.10197449 C246.87171697 -0.10968983 246.87171697 -0.10968983 248.51766515 -0.11756104 C257.53373171 -0.07588913 264.71341142 1.05429612 271.39355469 7.75073242 C277.62075686 14.6988176 279.35970992 20.4031444 279.14355469 29.72729492 C278.40596068 36.89834777 275.22845885 41.48543511 269.79199219 46.14526367 C261.87741826 52.30104339 253.82763207 52.43894305 244.20489502 52.39250183 C243.05496464 52.39491625 241.90503427 52.39733066 240.72025752 52.39981824 C236.87594683 52.40544345 233.03180317 52.39680073 229.1875 52.38818359 C226.42749818 52.3881494 223.66750141 52.39111598 220.90750122 52.39393616 C214.19351857 52.398969 207.47958532 52.39334746 200.76560882 52.38408586 C192.93849857 52.37367894 185.11139888 52.37377268 177.28428301 52.37425844 C163.31093089 52.37475875 149.33760167 52.36560716 135.36425781 52.35107422 C121.82323794 52.3369983 108.28223823 52.32990303 94.74121094 52.33056641 C93.49104175 52.33062634 93.49104175 52.33062634 92.21561661 52.33068749 C90.96755494 52.33074802 90.96755494 52.33074802 89.69427991 52.33080977 C74.25769851 52.33150102 58.82112564 52.32560009 43.38454701 52.31665656 C37.93685807 52.3136489 32.4891707 52.31257801 27.04148102 52.31212425 C20.39365453 52.31143953 13.74584241 52.30693927 7.09802201 52.29779144 C3.71022461 52.29319847 0.32246088 52.29065494 -3.06534195 52.29138565 C-6.74790879 52.29187921 -10.43041738 52.28619254 -14.11297607 52.27897644 C-15.16981244 52.28052504 -16.2266488 52.28207364 -17.31551051 52.28366917 C-30.81562928 52.24019426 -40.01570473 52.1777378 -50.02050781 42.39526367 C-54.36617015 35.93885106 -57.29896519 28.41561281 -57.45800781 20.58276367 C-57.48378906 19.81834961 -57.50957031 19.05393555 -57.53613281 18.26635742 C-57.12629632 15.61705725 -56.31761358 14.7479496 -54.20800781 13.14526367 C-53.54800781 13.14526367 -52.88800781 13.14526367 -52.20800781 13.14526367 C-52.01464844 12.53038086 -51.82128906 11.91549805 -51.62207031 11.28198242 C-51.36167969 10.47374023 -51.10128906 9.66549805 -50.83300781 8.83276367 C-50.57777344 8.03225586 -50.32253906 7.23174805 -50.05957031 6.40698242 C-49.20800781 4.14526367 -49.20800781 4.14526367 -47.20800781 1.14526367 C-44.5174885 0.73957923 -42.05242273 0.54272623 -39.3460083 0.46684265 C-38.50940273 0.43376564 -37.67279715 0.40068862 -36.81083989 0.36660928 C-24.54676865 -0.06164307 -12.26964828 -0.00264248 0 0 Z " fill="#FBFBFB" transform="translate(138.2080078125,223.854736328125)"></path><path d="M0 0 C1.02837999 0.97079071 2.02635191 1.97432491 3 3 C4.28389179 3.88636881 5.57611044 4.76075831 6.875 5.625 C11.44298051 8.97316987 13.64163217 12.93912483 16 18 C16.33 18.66 16.66 19.32 17 20 C17.88815209 28.72926627 17.24391177 35.79751877 12 43 C7.28985005 48.20341 2.74028418 51.64220936 -4.48215818 52.18735015 C-7.62013624 52.26738308 -10.7525304 52.28087883 -13.89154053 52.27415466 C-15.09834292 52.27939134 -16.30514531 52.28462802 -17.54851747 52.29002339 C-20.89058842 52.30241884 -24.23244882 52.30586724 -27.57452822 52.30542648 C-31.18202917 52.30707724 -34.78949204 52.32014856 -38.39697266 52.33161926 C-46.28133434 52.35444792 -54.16566907 52.3623875 -62.05005932 52.36744571 C-66.97529437 52.37070505 -71.90052162 52.37722895 -76.82575226 52.3844471 C-90.46899539 52.40400984 -104.11223129 52.42041609 -117.75548935 52.42332363 C-118.62817593 52.4235112 -119.50086252 52.42369877 -120.39999415 52.42389202 C-122.16904974 52.42425827 -123.93810533 52.42462197 -125.70716092 52.42498314 C-127.02435748 52.42525735 -127.02435748 52.42525735 -128.36816406 52.42553711 C-129.24736992 52.42571766 -130.12657578 52.42589821 -131.03242424 52.42608423 C-145.27757932 52.42962562 -159.52258321 52.45664724 -173.76768586 52.494035 C-188.40159278 52.53213512 -203.03542472 52.55148123 -217.66938233 52.55178314 C-225.88236313 52.55236731 -234.09516354 52.56083313 -242.30809784 52.58978081 C-249.30157802 52.61431748 -256.294812 52.62156222 -263.28832361 52.60653328 C-266.85425358 52.59937373 -270.41969761 52.60017966 -273.98557281 52.62294388 C-277.85743774 52.64742396 -281.72861307 52.63287123 -285.6005249 52.61473083 C-287.27827425 52.63453079 -287.27827425 52.63453079 -288.98991752 52.65473074 C-297.42867179 52.56457644 -303.90312774 50.40749471 -310.4375 44.97265625 C-316.46533533 37.60362755 -317.83521312 31.47003183 -317 22 C-315.55053573 14.62571829 -313.19236018 8.55388815 -307.1875 3.75 C-294.08131797 -2.82013623 -275.26425573 -0.26146132 -261.14819336 -0.21118164 C-258.44638709 -0.20897739 -255.74459163 -0.20757849 -253.04278564 -0.2071991 C-247.25135549 -0.2048506 -241.45997405 -0.19533317 -235.66856194 -0.18089485 C-227.28889354 -0.16010344 -218.90924568 -0.15151337 -210.52955491 -0.1459735 C-196.92146349 -0.13674412 -183.31339633 -0.11931927 -169.70532227 -0.09594727 C-168.48677825 -0.0938573 -168.48677825 -0.0938573 -167.24361718 -0.0917251 C-166.02350887 -0.08963181 -166.02350887 -0.08963181 -164.77875191 -0.08749622 C-153.22628307 -0.0676951 -141.67381341 -0.04987438 -130.12133789 -0.03442383 C-129.30724738 -0.03333298 -128.49315687 -0.03224213 -127.65439694 -0.03111822 C-114.08244721 -0.01309811 -100.51049502 0.00086225 -86.93853861 0.01274782 C-78.5776631 0.02033238 -70.21681168 0.03207028 -61.85595018 0.04920948 C-56.13450838 0.06077519 -50.41306853 0.06895633 -44.69161772 0.07447498 C-41.3915978 0.07780587 -38.0916076 0.08339285 -34.79159737 0.09228897 C-31.21460475 0.10172121 -27.63765708 0.10501433 -24.06065369 0.10679626 C-22.49720078 0.11321189 -22.49720078 0.11321189 -20.90216297 0.11975712 C-13.81420357 0.11416683 -6.94960373 -1.57349518 0 0 Z " fill="#FCFCFC" transform="translate(400,125)"></path><path d="M0 0 C1.33590692 0.08794005 2.67579696 0.12199766 4.01459408 0.12025452 C5.24339996 0.12231604 5.24339996 0.12231604 6.4970302 0.12441921 C7.39680403 0.12082425 8.29657785 0.11722929 9.22361755 0.11352539 C10.17987142 0.11367425 11.13612529 0.11382311 12.12135655 0.11397648 C15.34061069 0.11327947 18.55980846 0.10542532 21.77905273 0.09765625 C24.08199023 0.09573781 26.38492815 0.09427367 28.68786621 0.0932312 C33.65769148 0.09006378 38.62749988 0.08378493 43.59731865 0.07516479 C51.47080738 0.06165246 59.34429046 0.05574929 67.2177887 0.05102539 C78.27353302 0.04382804 89.32927083 0.03356912 100.38500977 0.02050781 C101.08684275 0.01968 101.78867574 0.01885219 102.5117764 0.01799929 C108.1965025 0.01126528 113.88122837 0.00435004 119.56595421 -0.00260353 C124.51019659 -0.00864953 129.45443905 -0.01463293 134.39868164 -0.02050781 C135.09450336 -0.02133594 135.79032508 -0.02216407 136.5072323 -0.02301729 C148.16462974 -0.03676738 159.82202729 -0.04649414 171.47943074 -0.05341816 C179.28900332 -0.0583731 187.09854945 -0.06819354 194.90811145 -0.08184814 C199.7972686 -0.08937075 204.68642225 -0.09263611 209.57558441 -0.0948143 C211.823156 -0.09666808 214.07072703 -0.10023169 216.31829262 -0.10574722 C226.88232838 -0.13082713 237.4412256 -0.08701356 247.99867249 0.31860352 C248.79359964 0.34070106 249.58852679 0.3627986 250.40754265 0.38556576 C258.08438009 0.74309589 264.70876965 2.88353338 270.390625 8.2265625 C276.39860926 14.84701117 277.77820617 20.78337531 277.4140625 29.6953125 C276.39985262 37.78985549 272.08521339 42.82138725 266 48 C261.1568645 51.4593825 256.71168595 52.12312782 250.84683514 52.13142776 C249.82466198 52.13526891 248.80248882 52.13911005 247.74934071 52.1430676 C246.63320498 52.14220112 245.51706924 52.14133463 244.36711121 52.14044189 C243.17608632 52.14341302 241.98506143 52.14638414 240.75794488 52.1494453 C237.45541102 52.15661749 234.15292918 52.15930398 230.85039127 52.16004276 C227.28723309 52.16189604 223.72408613 52.1694447 220.16093445 52.17617798 C212.37168715 52.18974992 204.58244501 52.19578406 196.79318786 52.20018864 C191.92878279 52.20295262 187.0643797 52.20719022 182.19997597 52.21169281 C168.72919305 52.22388329 155.25841172 52.2341835 141.78762341 52.2375679 C140.92576902 52.23778747 140.06391464 52.23800703 139.17594345 52.23823325 C138.31204282 52.23845153 137.44814218 52.23866981 136.55806273 52.2388947 C134.80750732 52.23933817 133.0569519 52.23978473 131.30639648 52.24023438 C130.43806296 52.2404558 129.56972944 52.24067723 128.67508278 52.24090537 C114.60315316 52.2448539 100.53127531 52.26231056 86.45936569 52.2855939 C72.00856812 52.309311 57.55779653 52.32176989 43.10697919 52.32293582 C34.99469864 52.3238523 26.88248557 52.32959803 18.77022362 52.34775543 C11.8630796 52.36316117 4.95602393 52.36827405 -1.951134 52.36001733 C-5.47416499 52.35611267 -8.9970181 52.35703129 -12.52002716 52.37107468 C-16.34214815 52.38617089 -20.16401927 52.37794172 -23.98616028 52.36749268 C-25.09560385 52.37554908 -26.20504742 52.38360548 -27.3481105 52.39190602 C-36.39641428 52.33401561 -44.27081112 50.40173443 -51 44 C-55.81781695 37.63848976 -57.78957466 32.06024131 -57 24 C-53.7286038 7.09185986 -53.7286038 7.09185986 -48 3 C-39.87938785 0.60498075 -31.04414199 0.67550782 -22.62451172 0.4284668 C-1.05764945 -0.35254982 -1.05764945 -0.35254982 0 0 Z " fill="#FCFCFC" transform="translate(140,322)"></path></svg>